<svg width="89.743408203125px" height="42.8px" xmlns="http://www.w3.org/2000/svg" viewBox="205.1282958984375 53.6 89.743408203125 42.8" style="background: rgba(0, 0, 0, 0);" preserveAspectRatio="xMidYMid"><defs><filter id="editing-hole" x="-100%" y="-100%" width="300%" height="300%"><feFlood flood-color="rgba(0%,0%,0%,0)" result="black"></feFlood><feMorphology operator="dilate" radius="2" in="SourceGraphic" result="erode"></feMorphology><feGaussianBlur in="erode" stdDeviation="4" result="blur"></feGaussianBlur><feOffset in="blur" dx="2" dy="2" result="offset"></feOffset><feComposite operator="atop" in="offset" in2="black" result="merge"></feComposite><feComposite operator="in" in="merge" in2="SourceGraphic" result="inner-shadow"></feComposite></filter></defs><g filter="url(#editing-hole)"><g transform="translate(224.69127225875854, 79.40499830245972)"><path d="M4.83-7.74L4.83-7.74L4.83-7.74Q3.45-7.74 2.66-6.81L2.66-6.81L2.66-6.81Q1.87-5.89 1.87-4.28L1.87-4.28L1.87-4.28Q1.87-2.63 2.64-1.73L2.64-1.73L2.64-1.73Q3.40-0.83 4.82-0.83L4.82-0.83L4.82-0.83Q5.74-0.83 6.88-1.17L6.88-1.17L6.88-0.23L6.88-0.23Q6.33-0.03 5.83 0.04L5.83 0.04L5.83 0.04Q5.33 0.12 4.67 0.12L4.67 0.12L4.67 0.12Q2.78 0.12 1.75-1.03L1.75-1.03L1.75-1.03Q0.73-2.19 0.73-4.29L0.73-4.29L0.73-4.29Q0.73-5.62 1.22-6.62L1.22-6.62L1.22-6.62Q1.71-7.61 2.65-8.15L2.65-8.15L2.65-8.15Q3.58-8.69 4.85-8.69L4.85-8.69L4.85-8.69Q6.21-8.69 7.21-8.19L7.21-8.19L6.78-7.27L6.78-7.27Q5.75-7.74 4.83-7.74ZM14.19-3.23L14.19-3.23L14.19-3.23Q14.19-1.65 13.39-0.77L13.39-0.77L13.39-0.77Q12.60 0.12 11.19 0.12L11.19 0.12L11.19 0.12Q10.32 0.12 9.64-0.29L9.64-0.29L9.64-0.29Q8.97-0.70 8.61-1.46L8.61-1.46L8.61-1.46Q8.24-2.22 8.24-3.23L8.24-3.23L8.24-3.23Q8.24-4.80 9.03-5.67L9.03-5.67L9.03-5.67Q9.81-6.55 11.23-6.55L11.23-6.55L11.23-6.55Q12.59-6.55 13.39-5.66L13.39-5.66L13.39-5.66Q14.19-4.76 14.19-3.23ZM9.33-3.23L9.33-3.23L9.33-3.23Q9.33-2.02 9.81-1.39L9.81-1.39L9.81-1.39Q10.29-0.76 11.22-0.76L11.22-0.76L11.22-0.76Q12.14-0.76 12.62-1.39L12.62-1.39L12.62-1.39Q13.10-2.02 13.10-3.23L13.10-3.23L13.10-3.23Q13.10-4.44 12.62-5.05L12.62-5.05L12.62-5.05Q12.13-5.67 11.20-5.67L11.20-5.67L11.20-5.67Q9.33-5.67 9.33-3.23ZM21.29 0L20.24 0L20.24-4.11L20.24-4.11Q20.24-4.90 19.90-5.28L19.90-5.28L19.90-5.28Q19.55-5.67 18.80-5.67L18.80-5.67L18.80-5.67Q17.81-5.67 17.36-5.12L17.36-5.12L17.36-5.12Q16.92-4.57 16.92-3.33L16.92-3.33L16.92 0L15.86 0L15.86-6.43L16.71-6.43L16.87-5.55L16.93-5.55L16.93-5.55Q17.23-6.03 17.77-6.29L17.77-6.29L17.77-6.29Q18.30-6.55 18.96-6.55L18.96-6.55L18.96-6.55Q20.14-6.55 20.71-5.98L20.71-5.98L20.71-5.98Q21.29-5.40 21.29-4.19L21.29-4.19L21.29 0ZM25.43-0.74L25.43-0.74L25.43-0.74Q25.63-0.74 25.91-0.79L25.91-0.79L25.91-0.79Q26.19-0.83 26.33-0.88L26.33-0.88L26.33-0.07L26.33-0.07Q26.18-0.01 25.87 0.06L25.87 0.06L25.87 0.06Q25.56 0.12 25.25 0.12L25.25 0.12L25.25 0.12Q23.36 0.12 23.36-1.87L23.36-1.87L23.36-5.61L22.45-5.61L22.45-6.12L23.37-6.54L23.79-7.91L24.42-7.91L24.42-6.43L26.28-6.43L26.28-5.61L24.42-5.61L24.42-1.90L24.42-1.90Q24.42-1.34 24.69-1.04L24.69-1.04L24.69-1.04Q24.96-0.74 25.43-0.74ZM30.35 0.12L30.35 0.12L30.35 0.12Q28.90 0.12 28.08-0.76L28.08-0.76L28.08-0.76Q27.25-1.63 27.25-3.17L27.25-3.17L27.25-3.17Q27.25-4.72 28.02-5.63L28.02-5.63L28.02-5.63Q28.79-6.55 30.09-6.55L30.09-6.55L30.09-6.55Q31.31-6.55 32.03-5.77L32.03-5.77L32.03-5.77Q32.75-4.99 32.75-3.65L32.75-3.65L32.75-3.01L28.34-3.01L28.34-3.01Q28.37-1.92 28.90-1.35L28.90-1.35L28.90-1.35Q29.43-0.78 30.39-0.78L30.39-0.78L30.39-0.78Q30.91-0.78 31.37-0.87L31.37-0.87L31.37-0.87Q31.83-0.96 32.46-1.22L32.46-1.22L32.46-0.30L32.46-0.30Q31.92-0.07 31.45 0.02L31.45 0.02L31.45 0.02Q30.98 0.12 30.35 0.12ZM30.08-5.69L30.08-5.69L30.08-5.69Q29.33-5.69 28.89-5.20L28.89-5.20L28.89-5.20Q28.45-4.72 28.37-3.85L28.37-3.85L31.64-3.85L31.64-3.85Q31.63-4.75 31.22-5.22L31.22-5.22L31.22-5.22Q30.82-5.69 30.08-5.69ZM39.80 0L38.76 0L38.76-4.11L38.76-4.11Q38.76-4.90 38.41-5.28L38.41-5.28L38.41-5.28Q38.06-5.67 37.32-5.67L37.32-5.67L37.32-5.67Q36.33-5.67 35.88-5.12L35.88-5.12L35.88-5.12Q35.43-4.57 35.43-3.33L35.43-3.33L35.43 0L34.38 0L34.38-6.43L35.23-6.43L35.38-5.55L35.44-5.55L35.44-5.55Q35.74-6.03 36.28-6.29L36.28-6.29L36.28-6.29Q36.82-6.55 37.47-6.55L37.47-6.55L37.47-6.55Q38.65-6.55 39.23-5.98L39.23-5.98L39.23-5.98Q39.80-5.40 39.80-4.19L39.80-4.19L39.80 0ZM43.95-0.74L43.95-0.74L43.95-0.74Q44.15-0.74 44.43-0.79L44.43-0.79L44.43-0.79Q44.70-0.83 44.84-0.88L44.84-0.88L44.84-0.07L44.84-0.07Q44.70-0.01 44.39 0.06L44.39 0.06L44.39 0.06Q44.08 0.12 43.76 0.12L43.76 0.12L43.76 0.12Q41.88 0.12 41.88-1.87L41.88-1.87L41.88-5.61L40.97-5.61L40.97-6.12L41.89-6.54L42.31-7.91L42.94-7.91L42.94-6.43L44.79-6.43L44.79-5.61L42.94-5.61L42.94-1.90L42.94-1.90Q42.94-1.34 43.20-1.04L43.20-1.04L43.20-1.04Q43.47-0.74 43.95-0.74ZM50.31-1.78L50.31-1.78L50.31-1.78Q50.31-0.87 49.64-0.38L49.64-0.38L49.64-0.38Q48.97 0.12 47.75 0.12L47.75 0.12L47.75 0.12Q46.48 0.12 45.73-0.29L45.73-0.29L45.73-1.25L45.73-1.25Q46.79-0.73 47.77-0.73L47.77-0.73L47.77-0.73Q48.57-0.73 48.93-0.99L48.93-0.99L48.93-0.99Q49.29-1.25 49.29-1.68L49.29-1.68L49.29-1.68Q49.29-2.06 48.95-2.33L48.95-2.33L48.95-2.33Q48.60-2.59 47.71-2.93L47.71-2.93L47.71-2.93Q46.80-3.28 46.43-3.53L46.43-3.53L46.43-3.53Q46.06-3.78 45.89-4.09L45.89-4.09L45.89-4.09Q45.71-4.40 45.71-4.85L45.71-4.85L45.71-4.85Q45.71-5.64 46.36-6.09L46.36-6.09L46.36-6.09Q47.00-6.55 48.13-6.55L48.13-6.55L48.13-6.55Q49.22-6.55 50.18-6.12L50.18-6.12L49.82-5.28L49.82-5.28Q48.84-5.69 48.06-5.69L48.06-5.69L48.06-5.69Q47.40-5.69 47.06-5.48L47.06-5.48L47.06-5.48Q46.72-5.27 46.72-4.91L46.72-4.91L46.72-4.91Q46.72-4.56 47.02-4.33L47.02-4.33L47.02-4.33Q47.31-4.10 48.38-3.69L48.38-3.69L48.38-3.69Q49.18-3.39 49.57-3.13L49.57-3.13L49.57-3.13Q49.95-2.87 50.13-2.55L50.13-2.55L50.13-2.55Q50.31-2.23 50.31-1.78Z" fill="#cccccc"></path></g></g><style>text {
  font-size: 64px;
  font-family: Arial Black;
  dominant-baseline: central;
  text-anchor: middle;
}</style></svg>
