<svg width="49.104" height="8.688" xmlns="http://www.w3.org/2000/svg"><path d="M15.744 8.544h-1.08v-6.24h1.044v1.044q.336-.504.858-.846.522-.342 1.242-.342 1.056 0 1.578.636a2.208 2.208 0 01.433.885q.089.363.089.795v4.068h-1.08V4.596q0-.672-.318-1.08a1.03 1.03 0 00-.753-.402 1.447 1.447 0 00-.129-.006 1.575 1.575 0 00-.822.236 2.082 2.082 0 00-.222.154q-.492.39-.84.918v4.128zm18.396 0h-1.08v-6.24h1.044v1.044q.336-.504.858-.846.522-.342 1.242-.342 1.056 0 1.578.636a2.208 2.208 0 01.433.885q.089.363.089.795v4.068h-1.08V4.596q0-.672-.318-1.08a1.03 1.03 0 00-.753-.402 1.447 1.447 0 00-.129-.006 1.575 1.575 0 00-.822.236 2.082 2.082 0 00-.222.154q-.492.39-.84.918v4.128zM5.868.432l-.348.96q-.372-.18-.762-.288a2.762 2.762 0 00-.368-.074q-.19-.025-.404-.032A4.885 4.885 0 003.84.996a2.541 2.541 0 00-.948.175 2.398 2.398 0 00-.426.221 2.54 2.54 0 00-.764.79 3.237 3.237 0 00-.19.35q-.348.744-.348 1.8a5.024 5.024 0 00.074.883 3.711 3.711 0 00.268.881 3.081 3.081 0 00.43.699 2.571 2.571 0 00.518.477q.606.42 1.386.42a4.046 4.046 0 00.477-.027q.297-.035.543-.117.432-.144.84-.372l.348.948a4.507 4.507 0 01-.539.245 5.747 5.747 0 01-.475.157 4.031 4.031 0 01-.596.119q-.34.043-.73.043a3.886 3.886 0 01-1.119-.156 3.355 3.355 0 01-.813-.366A3.432 3.432 0 01.591 6.913a4.19 4.19 0 01-.123-.235Q.007 5.726 0 4.418a7.525 7.525 0 010-.038q0-1.284.474-2.274A3.796 3.796 0 011.312.95a3.583 3.583 0 01.506-.392A3.525 3.525 0 013.34.029 4.475 4.475 0 013.852 0a5.477 5.477 0 01.607.032 4.224 4.224 0 01.485.082 4.587 4.587 0 01.897.305 4.265 4.265 0 01.027.013zm38.52 7.608l.456-.9a2.227 2.227 0 00.377.255q.185.101.406.182a3.761 3.761 0 00.003.001 2.889 2.889 0 00.913.172 3.296 3.296 0 00.101.002 3.254 3.254 0 00.37-.02q.382-.043.618-.186a.929.929 0 00.026-.016.894.894 0 00.184-.155A.606.606 0 0048 6.96a.855.855 0 00-.038-.258.745.745 0 00-.088-.186.766.766 0 00-.111-.131q-.13-.125-.351-.247a3.415 3.415 0 00-.239-.119q-.254-.116-.613-.241a12.432 12.432 0 00-.12-.042 5.594 5.594 0 01-.528-.209q-.253-.117-.454-.248a2.32 2.32 0 01-.332-.257 1.359 1.359 0 01-.395-.72 2.015 2.015 0 01-.043-.426 1.454 1.454 0 01.474-1.082 2.095 2.095 0 01.156-.136 2.132 2.132 0 01.724-.366q.307-.091.675-.119a4.503 4.503 0 01.347-.013 4.895 4.895 0 01.534.028q.277.03.519.094a3.021 3.021 0 01.015.004 4.652 4.652 0 01.496.163 3.733 3.733 0 01.344.155l-.3.888q-.324-.192-.738-.312a3.003 3.003 0 00-.538-.102 3.82 3.82 0 00-.38-.018 2.476 2.476 0 00-.352.023q-.18.026-.325.081a1.021 1.021 0 00-.271.148q-.215.167-.287.356a.543.543 0 00-.037.196.59.59 0 00.179.426.85.85 0 00.073.066 1.186 1.186 0 00.156.104q.273.156.804.332a10.167 10.167 0 00.024.008 8.13 8.13 0 01.608.228q.577.245.908.519a1.794 1.794 0 01.14.129 1.632 1.632 0 01.466 1.11 2.148 2.148 0 01.002.09q0 .84-.678 1.326-.678.486-1.818.486-.708 0-1.278-.18a3.706 3.706 0 01-.461-.178q-.237-.112-.427-.25a2.188 2.188 0 01-.054-.04zM31.584 5.868h-4.368a2.891 2.891 0 00.137.603q.143.407.408.696a1.798 1.798 0 00.067.069q.504.492 1.332.492.54 0 .972-.114.432-.114.828-.294l.252.924a4.892 4.892 0 01-.52.195 6.224 6.224 0 01-.452.123 4.67 4.67 0 01-.611.098 6.243 6.243 0 01-.601.028 3.398 3.398 0 01-.929-.121 2.533 2.533 0 01-1.201-.737 2.823 2.823 0 01-.625-1.145q-.121-.42-.151-.919a5.655 5.655 0 01-.01-.342 4.243 4.243 0 01.1-.939 3.461 3.461 0 01.254-.735 2.957 2.957 0 01.602-.85 2.746 2.746 0 01.388-.314q.636-.426 1.476-.426a3.426 3.426 0 01.657.06q.401.078.721.259a2.066 2.066 0 01.116.071q.594.39.894 1.05a3.382 3.382 0 01.291 1.184 4.012 4.012 0 01.009.268 9.024 9.024 0 01-.035.804 8.337 8.337 0 01-.001.012zm-9.576.528V3.468h-1.08v-.936h1.104L22.26.564h.828v1.968h1.728v.936h-1.728V6.48a2.587 2.587 0 00.02.336q.048.365.211.568a.667.667 0 00.063.068q.294.276.702.276.3 0 .57-.096a3.088 3.088 0 00.381-.164 2.732 2.732 0 00.117-.064l.3.864a2.226 2.226 0 01-.194.103q-.193.091-.454.179-.408.138-.852.138a2.199 2.199 0 01-.622-.084 1.672 1.672 0 01-.8-.51 1.934 1.934 0 01-.387-.708q-.135-.429-.135-.99zm18.396 0V3.468h-1.08v-.936h1.104l.228-1.968h.828v1.968h1.728v.936h-1.728V6.48a2.587 2.587 0 00.02.336q.048.365.211.568a.667.667 0 00.063.068q.294.276.702.276.3 0 .57-.096a3.088 3.088 0 00.381-.164 2.732 2.732 0 00.117-.064l.3.864a2.226 2.226 0 01-.194.103q-.193.091-.454.179-.408.138-.852.138a2.199 2.199 0 01-.622-.084 1.672 1.672 0 01-.8-.51 1.934 1.934 0 01-.387-.708q-.135-.429-.135-.99zM9.079 8.527a3.266 3.266 0 001.037.161 3.687 3.687 0 00.273-.01 3.031 3.031 0 001.317-.398q.702-.408 1.11-1.146a3.151 3.151 0 00.318-.857 4.102 4.102 0 00.09-.877 4.145 4.145 0 00-.058-.709 3.095 3.095 0 00-.356-1.013q-.414-.726-1.116-1.122a2.982 2.982 0 00-.557-.243 3.329 3.329 0 00-1.021-.153 3.759 3.759 0 00-.19.005 3.14 3.14 0 00-1.394.391q-.708.396-1.116 1.128-.408.732-.408 1.74a4.178 4.178 0 00.032.522 3.294 3.294 0 00.37 1.176q.402.738 1.11 1.152a2.947 2.947 0 00.559.253zm1.037-.799a2.249 2.249 0 00.627-.083 1.68 1.68 0 00.849-.559 2.256 2.256 0 00.458-.971 3.253 3.253 0 00.07-.691 2.565 2.565 0 00-.147-.874 2.402 2.402 0 00-.117-.272 2.304 2.304 0 00-.501-.668 2.18 2.18 0 00-.213-.172q-.45-.318-1.026-.318-.948 0-1.476.624-.508.6-.527 1.578a3.944 3.944 0 00-.001.078q0 .624.264 1.158a2.332 2.332 0 00.424.605 2.115 2.115 0 00.29.247q.45.318 1.026.318zm17.088-2.736h3.42a2.923 2.923 0 00-.048-.55q-.06-.31-.192-.553a1.491 1.491 0 00-.216-.301 1.499 1.499 0 00-.835-.453 2.207 2.207 0 00-.425-.039 1.63 1.63 0 00-.613.112 1.503 1.503 0 00-.539.374q-.379.405-.51 1.112a3.842 3.842 0 00-.042.298z" stroke-linecap="round" fill-rule="evenodd" font-size="12" stroke="#fff" stroke-width=".1" fill="#fff"/></svg>
