<svg width="61.38" height="10.86" xmlns="http://www.w3.org/2000/svg"><path d="M19.68 10.68h-1.35v-7.8h1.305v1.305q.42-.63 1.073-1.057a2.597 2.597 0 011.065-.394 3.394 3.394 0 01.487-.034 3.484 3.484 0 01.76.078q.501.112.867.386a1.989 1.989 0 01.346.331 2.761 2.761 0 01.54 1.107q.112.453.112.993v5.085h-1.35V5.745a2.89 2.89 0 00-.051-.561q-.092-.462-.346-.789-.398-.51-1.103-.51a1.968 1.968 0 00-1.027.295 2.603 2.603 0 00-.278.193q-.615.487-1.05 1.147v5.16zm22.995 0h-1.35v-7.8h1.305v1.305q.42-.63 1.073-1.057a2.597 2.597 0 011.065-.394 3.394 3.394 0 01.487-.034 3.484 3.484 0 01.76.078q.501.112.867.386a1.989 1.989 0 01.346.331 2.761 2.761 0 01.54 1.107q.112.453.112.993v5.085h-1.35V5.745a2.89 2.89 0 00-.051-.561q-.092-.462-.346-.789-.398-.51-1.103-.51a1.968 1.968 0 00-1.027.295 2.603 2.603 0 00-.278.193q-.615.487-1.05 1.147v5.16zM7.335.54L6.9 1.74q-.465-.225-.952-.36-.419-.116-.966-.132a6.106 6.106 0 00-.182-.003 3.176 3.176 0 00-1.186.218 2.997 2.997 0 00-.531.277 3.175 3.175 0 00-.955.987 4.047 4.047 0 00-.238.438q-.435.93-.435 2.25a6.279 6.279 0 00.092 1.103 4.639 4.639 0 00.336 1.102 3.852 3.852 0 00.538.874 3.213 3.213 0 00.647.596 2.955 2.955 0 001.671.525 3.583 3.583 0 00.061 0q.735 0 1.275-.18.54-.18 1.05-.465l.435 1.185q-.555.3-1.267.503-.667.189-1.537.201a8.613 8.613 0 01-.121.001 4.858 4.858 0 01-1.399-.195 4.194 4.194 0 01-1.016-.457A4.29 4.29 0 01.739 8.641a5.237 5.237 0 01-.154-.293A5.642 5.642 0 01.12 6.89Q.004 6.25 0 5.522a9.43 9.43 0 010-.047Q0 3.87.593 2.633a4.745 4.745 0 011.046-1.445 4.479 4.479 0 01.634-.49A4.406 4.406 0 014.175.036 5.594 5.594 0 014.815 0a6.846 6.846 0 01.759.04 5.28 5.28 0 01.606.103 5.734 5.734 0 011.121.381 5.351 5.351 0 01.034.016zm48.15 9.51l.57-1.125a2.784 2.784 0 00.472.319q.231.126.506.227a4.326 4.326 0 00.005.002 3.611 3.611 0 001.141.215 4.12 4.12 0 00.126.002q.809 0 1.235-.257a1.161 1.161 0 00.033-.02 1.117 1.117 0 00.23-.194A.758.758 0 0060 8.7a1.068 1.068 0 00-.047-.322.932.932 0 00-.11-.233q-.158-.24-.578-.472-.379-.21-1.065-.451a15.54 15.54 0 00-.15-.052 6.992 6.992 0 01-.66-.261q-.317-.147-.568-.31a2.9 2.9 0 01-.414-.321 1.699 1.699 0 01-.494-.9 2.519 2.519 0 01-.054-.533 1.818 1.818 0 01.592-1.352 2.619 2.619 0 01.196-.17q.787-.623 2.182-.623.738 0 1.316.152a3.795 3.795 0 01.019.006 5.815 5.815 0 01.62.203 4.667 4.667 0 01.43.194l-.375 1.11q-.405-.24-.922-.39a3.754 3.754 0 00-.673-.127 4.776 4.776 0 00-.475-.023 3.095 3.095 0 00-.44.029q-.463.067-.745.286a1.398 1.398 0 00-.204.191q-.201.235-.201.499a.738.738 0 00.224.533 1.062 1.062 0 00.091.082q.31.251 1.2.545a12.669 12.669 0 00.03.01 10.163 10.163 0 01.759.285q.722.307 1.136.649a2.242 2.242 0 01.175.161 2.04 2.04 0 01.583 1.387 2.684 2.684 0 01.002.113q0 1.05-.847 1.658a3.008 3.008 0 01-.957.446q-.581.161-1.316.161a5.998 5.998 0 01-.879-.062 4.642 4.642 0 01-.718-.163 4.633 4.633 0 01-.576-.223q-.298-.139-.535-.312a2.734 2.734 0 01-.067-.05zM39.48 7.335h-5.46a3.613 3.613 0 00.171.754q.178.509.51.87a2.247 2.247 0 00.084.086 2.122 2.122 0 001.144.572 3.003 3.003 0 00.521.043q.675 0 1.215-.142.54-.143 1.035-.368l.315 1.155a6.115 6.115 0 01-.65.244 7.779 7.779 0 01-.565.154 5.837 5.837 0 01-.764.122 7.804 7.804 0 01-.751.035 4.248 4.248 0 01-1.162-.151 3.166 3.166 0 01-1.5-.921q-.872-.951-.97-2.581a7.069 7.069 0 01-.013-.427 5.304 5.304 0 01.125-1.173 4.326 4.326 0 01.318-.919 3.696 3.696 0 01.752-1.063 3.433 3.433 0 01.485-.392q.795-.533 1.845-.533 1.018 0 1.723.399a2.582 2.582 0 01.145.089q.742.487 1.117 1.312a4.228 4.228 0 01.364 1.48 5.015 5.015 0 01.011.335 11.281 11.281 0 01-.044 1.005 10.23 10.23 0 01-.001.015zm-11.97.66v-3.66h-1.35v-1.17h1.38l.285-2.46h1.035v2.46h2.16v1.17h-2.16V8.1q0 .771.289 1.13a.833.833 0 00.079.085q.367.345.877.345.375 0 .713-.12a3.86 3.86 0 00.476-.205 3.415 3.415 0 00.146-.08l.375 1.08a2.782 2.782 0 01-.243.128q-.12.057-.262.113a6.505 6.505 0 01-.305.112q-.51.172-1.065.172a3.401 3.401 0 01-.017 0q-1.113-.006-1.76-.742a2.417 2.417 0 01-.485-.886q-.114-.364-.151-.805a5.217 5.217 0 01-.017-.432zm22.995 0v-3.66h-1.35v-1.17h1.38l.285-2.46h1.035v2.46h2.16v1.17h-2.16V8.1q0 .771.289 1.13a.833.833 0 00.079.085q.367.345.877.345.375 0 .713-.12a3.86 3.86 0 00.476-.205 3.415 3.415 0 00.146-.08l.375 1.08a2.782 2.782 0 01-.243.128q-.12.057-.262.113a6.505 6.505 0 01-.305.112q-.51.172-1.065.172a3.401 3.401 0 01-.017 0q-1.113-.006-1.76-.742a2.417 2.417 0 01-.485-.886q-.114-.364-.151-.805a5.217 5.217 0 01-.017-.432zm-37.86 2.865q-1.11 0-1.995-.517-.885-.518-1.387-1.44a4.118 4.118 0 01-.463-1.47 5.223 5.223 0 01-.04-.653 5.251 5.251 0 01.098-1.036 3.903 3.903 0 01.412-1.139q.51-.915 1.395-1.41a3.925 3.925 0 011.743-.489 4.699 4.699 0 01.237-.006 4.161 4.161 0 011.276.191 3.727 3.727 0 01.697.304q.877.495 1.395 1.403a3.869 3.869 0 01.444 1.266 5.181 5.181 0 01.073.886q0 1.245-.51 2.168-.51.922-1.387 1.432-.878.51-1.988.51zm0-1.2q1.185 0 1.845-.802a2.82 2.82 0 00.573-1.214 4.066 4.066 0 00.087-.864 3.206 3.206 0 00-.184-1.093 3.002 3.002 0 00-.146-.339 2.88 2.88 0 00-.626-.836 2.726 2.726 0 00-.266-.214q-.563-.398-1.283-.398a2.887 2.887 0 00-.784.101 2.106 2.106 0 00-1.061.679 2.682 2.682 0 00-.551 1.106q-.109.44-.109.964 0 .78.33 1.448a2.916 2.916 0 00.53.756 2.644 2.644 0 00.363.309q.562.397 1.282.397zm21.36-3.42h4.275a3.653 3.653 0 00-.061-.688q-.074-.387-.24-.691a1.863 1.863 0 00-.269-.376 1.873 1.873 0 00-1.044-.566 2.759 2.759 0 00-.531-.049 2.037 2.037 0 00-.767.14 1.879 1.879 0 00-.673.468q-.474.505-.637 1.39a4.803 4.803 0 00-.053.372z" stroke-linecap="round" fill-rule="evenodd" font-size="12" stroke="#fff" stroke-width=".1" fill="#fff"/></svg>
